<svg xmlns="http://www.w3.org/2000/svg" xmlns:xlink="http://www.w3.org/1999/xlink" width="4000" zoomAndPan="magnify" viewBox="0 0 3000 880.499974" height="1174" preserveAspectRatio="xMidYMid meet" version="1.0"><defs><g/><clipPath id="1295d9926c"><path d="M 527 202 L 889 202 L 889 786.429688 L 527 786.429688 Z M 527 202 " clip-rule="nonzero"/></clipPath><clipPath id="3ecd1eb5b2"><path d="M 527 93.824219 L 1267.933594 93.824219 L 1267.933594 279 L 527 279 Z M 527 93.824219 " clip-rule="nonzero"/></clipPath><clipPath id="ceddb2dfab"><path d="M 906 202 L 1267.933594 202 L 1267.933594 786.429688 L 906 786.429688 Z M 906 202 " clip-rule="nonzero"/></clipPath><clipPath id="532b10ac63"><path d="M 88.851562 202 L 191 202 L 191 254 L 88.851562 254 Z M 88.851562 202 " clip-rule="nonzero"/></clipPath></defs><g clip-path="url(#1295d9926c)"><path fill="#023e8a" d="M 864.726562 320.066406 L 527.207031 202.945312 L 527.207031 661.132812 L 888.199219 786.394531 Z M 864.726562 320.066406 " fill-opacity="1" fill-rule="evenodd"/></g><g clip-path="url(#3ecd1eb5b2)"><path fill="#023e8a" d="M 897.492188 93.507812 L 1267.78125 186.082031 L 897.492188 278.65625 L 527.207031 186.082031 Z M 897.492188 93.507812 " fill-opacity="1" fill-rule="evenodd"/></g><g clip-path="url(#ceddb2dfab)"><path fill="#023e8a" d="M 930.261719 320.066406 L 1267.78125 202.945312 L 1267.78125 661.132812 L 906.785156 786.394531 Z M 930.261719 320.066406 " fill-opacity="1" fill-rule="evenodd"/></g><path fill="#023e8a" d="M 527.207031 202.945312 L 248.953125 202.945312 C 234.957031 202.945312 223.507812 214.398438 223.507812 228.402344 C 223.507812 242.398438 234.957031 253.859375 248.953125 253.859375 L 527.207031 253.859375 C 541.207031 253.859375 552.660156 242.398438 552.660156 228.402344 Z M 527.207031 202.945312 " fill-opacity="1" fill-rule="evenodd"/><path fill="#023e8a" d="M 527.207031 304.765625 L 317.703125 304.765625 C 303.699219 304.765625 292.246094 316.222656 292.246094 330.21875 C 292.246094 344.222656 303.695312 355.675781 317.703125 355.675781 L 527.207031 355.675781 C 541.210938 355.675781 552.664062 344.226562 552.664062 330.21875 C 552.660156 316.222656 541.210938 304.765625 527.207031 304.765625 " fill-opacity="1" fill-rule="evenodd"/><path fill="#023e8a" d="M 527.207031 406.585938 L 289.644531 406.585938 C 275.648438 406.585938 264.199219 418.035156 264.199219 432.035156 L 264.199219 432.042969 C 264.199219 446.039062 275.648438 457.5 289.644531 457.5 L 527.207031 457.5 C 541.207031 457.5 552.660156 446.039062 552.660156 432.042969 L 552.660156 432.035156 C 552.660156 418.039062 541.210938 406.585938 527.207031 406.585938 " fill-opacity="1" fill-rule="evenodd"/><path fill="#023e8a" d="M 527.207031 508.402344 L 429.914062 508.402344 C 415.910156 508.402344 404.457031 519.851562 404.457031 533.859375 C 404.457031 547.863281 415.90625 559.3125 429.914062 559.3125 L 527.207031 559.3125 C 541.207031 559.3125 552.660156 547.863281 552.660156 533.859375 C 552.660156 519.851562 541.210938 508.402344 527.207031 508.402344 " fill-opacity="1" fill-rule="evenodd"/><path fill="#023e8a" d="M 527.207031 610.222656 L 360.554688 610.222656 C 346.550781 610.222656 335.097656 621.671875 335.097656 635.679688 C 335.097656 649.683594 346.546875 661.136719 360.554688 661.136719 L 527.207031 661.136719 C 541.207031 661.136719 552.660156 649.683594 552.660156 635.679688 C 552.660156 621.671875 541.210938 610.222656 527.207031 610.222656 " fill-opacity="1" fill-rule="evenodd"/><path fill="#023e8a" d="M 349.542969 508.402344 L 297.128906 508.402344 C 283.132812 508.402344 271.683594 519.851562 271.683594 533.859375 C 271.683594 547.863281 283.132812 559.3125 297.128906 559.3125 L 349.542969 559.3125 C 363.542969 559.3125 375 547.863281 375 533.859375 C 374.996094 519.851562 363.539062 508.402344 349.542969 508.402344 " fill-opacity="1" fill-rule="evenodd"/><path fill="#023e8a" d="M 239.203125 304.765625 L 151.261719 304.765625 C 137.257812 304.765625 125.804688 316.222656 125.804688 330.21875 C 125.804688 344.222656 137.253906 355.675781 151.261719 355.675781 L 239.203125 355.675781 C 253.207031 355.675781 264.65625 344.226562 264.65625 330.21875 C 264.65625 316.222656 253.207031 304.765625 239.203125 304.765625 " fill-opacity="1" fill-rule="evenodd"/><g clip-path="url(#532b10ac63)"><path fill="#023e8a" d="M 164.875 202.945312 L 114.308594 202.945312 C 100.300781 202.945312 88.851562 214.398438 88.851562 228.402344 C 88.851562 242.398438 100.300781 253.859375 114.308594 253.859375 L 164.875 253.859375 C 178.871094 253.859375 190.320312 242.398438 190.320312 228.402344 C 190.320312 214.398438 178.871094 202.945312 164.875 202.945312 " fill-opacity="1" fill-rule="evenodd"/></g><g fill="#023e8a" fill-opacity="1"><g transform="translate(1349.355653, 518.680523)"><g><path d="M 98.15625 -111.8125 C 97.726562 -117.101562 95.753906 -121.226562 92.234375 -124.1875 C 88.710938 -127.15625 83.378906 -128.640625 76.234375 -128.640625 C 71.679688 -128.640625 67.960938 -128.097656 65.078125 -127.015625 C 62.191406 -125.929688 60.0625 -124.460938 58.6875 -122.609375 C 57.3125 -120.753906 56.597656 -118.640625 56.546875 -116.265625 C 56.429688 -114.304688 56.785156 -112.546875 57.609375 -110.984375 C 58.429688 -109.421875 59.742188 -108.015625 61.546875 -106.765625 C 63.347656 -105.523438 65.648438 -104.398438 68.453125 -103.390625 C 71.253906 -102.390625 74.585938 -101.488281 78.453125 -100.6875 L 91.796875 -97.828125 C 100.796875 -95.929688 108.5 -93.421875 114.90625 -90.296875 C 121.3125 -87.171875 126.550781 -83.503906 130.625 -79.296875 C 134.707031 -75.085938 137.710938 -70.359375 139.640625 -65.109375 C 141.578125 -59.867188 142.570312 -54.15625 142.625 -47.96875 C 142.570312 -37.269531 139.894531 -28.210938 134.59375 -20.796875 C 129.300781 -13.390625 121.742188 -7.753906 111.921875 -3.890625 C 102.109375 -0.0234375 90.316406 1.90625 76.546875 1.90625 C 62.410156 1.90625 50.085938 -0.179688 39.578125 -4.359375 C 29.078125 -8.546875 20.925781 -14.992188 15.125 -23.703125 C 9.332031 -32.410156 6.410156 -43.566406 6.359375 -57.171875 L 48.28125 -57.171875 C 48.550781 -52.203125 49.796875 -48.019531 52.015625 -44.625 C 54.234375 -41.238281 57.367188 -38.671875 61.421875 -36.921875 C 65.472656 -35.179688 70.304688 -34.3125 75.921875 -34.3125 C 80.628906 -34.3125 84.570312 -34.890625 87.75 -36.046875 C 90.925781 -37.210938 93.332031 -38.828125 94.96875 -40.890625 C 96.613281 -42.960938 97.460938 -45.320312 97.515625 -47.96875 C 97.460938 -50.457031 96.65625 -52.640625 95.09375 -54.515625 C 93.53125 -56.390625 90.972656 -58.082031 87.421875 -59.59375 C 83.878906 -61.101562 79.09375 -62.519531 73.0625 -63.84375 L 56.859375 -67.34375 C 42.460938 -70.46875 31.117188 -75.695312 22.828125 -83.03125 C 14.546875 -90.363281 10.429688 -100.378906 10.484375 -113.078125 C 10.429688 -123.398438 13.195312 -132.441406 18.78125 -140.203125 C 24.363281 -147.960938 32.117188 -154.007812 42.046875 -158.34375 C 51.972656 -162.6875 63.367188 -164.859375 76.234375 -164.859375 C 89.367188 -164.859375 100.722656 -162.660156 110.296875 -158.265625 C 119.878906 -153.867188 127.28125 -147.6875 132.5 -139.71875 C 137.71875 -131.757812 140.351562 -122.457031 140.40625 -111.8125 Z M 98.15625 -111.8125 "/></g></g></g><g fill="#023e8a" fill-opacity="1"><g transform="translate(1509.511128, 518.680523)"><g><path d="M 51.78125 0 L 3.8125 -162.640625 L 53.046875 -162.640625 L 75.28125 -62.578125 L 76.546875 -62.578125 L 102.921875 -162.640625 L 141.671875 -162.640625 L 168.03125 -62.265625 L 169.3125 -62.265625 L 191.546875 -162.640625 L 240.78125 -162.640625 L 192.8125 0 L 150.5625 0 L 122.9375 -90.84375 L 121.65625 -90.84375 L 94.03125 0 Z M 51.78125 0 "/></g></g></g><g fill="#023e8a" fill-opacity="1"><g transform="translate(1765.276956, 518.680523)"><g><path d="M 54.640625 -162.640625 L 54.640625 0 L 10.484375 0 L 10.484375 -162.640625 Z M 54.640625 -162.640625 "/></g></g></g><g fill="#023e8a" fill-opacity="1"><g transform="translate(1841.574872, 518.680523)"><g><path d="M 10.484375 0 L 10.484375 -162.640625 L 124.84375 -162.640625 L 124.84375 -127.0625 L 54.640625 -127.0625 L 54.640625 -99.109375 L 117.84375 -99.109375 L 117.84375 -63.53125 L 54.640625 -63.53125 L 54.640625 0 Z M 10.484375 0 "/></g></g></g><g fill="#023e8a" fill-opacity="1"><g transform="translate(1983.307093, 518.680523)"><g><path d="M 6.03125 -127.0625 L 6.03125 -162.640625 L 147.390625 -162.640625 L 147.390625 -127.0625 L 98.46875 -127.0625 L 98.46875 0 L 54.953125 0 L 54.953125 -127.0625 Z M 6.03125 -127.0625 "/></g></g></g><g fill="#023e8a" fill-opacity="1"><g transform="translate(2147.90956, 518.680523)"><g><path d="M 98.15625 -111.8125 C 97.726562 -117.101562 95.753906 -121.226562 92.234375 -124.1875 C 88.710938 -127.15625 83.378906 -128.640625 76.234375 -128.640625 C 71.679688 -128.640625 67.960938 -128.097656 65.078125 -127.015625 C 62.191406 -125.929688 60.0625 -124.460938 58.6875 -122.609375 C 57.3125 -120.753906 56.597656 -118.640625 56.546875 -116.265625 C 56.429688 -114.304688 56.785156 -112.546875 57.609375 -110.984375 C 58.429688 -109.421875 59.742188 -108.015625 61.546875 -106.765625 C 63.347656 -105.523438 65.648438 -104.398438 68.453125 -103.390625 C 71.253906 -102.390625 74.585938 -101.488281 78.453125 -100.6875 L 91.796875 -97.828125 C 100.796875 -95.929688 108.5 -93.421875 114.90625 -90.296875 C 121.3125 -87.171875 126.550781 -83.503906 130.625 -79.296875 C 134.707031 -75.085938 137.710938 -70.359375 139.640625 -65.109375 C 141.578125 -59.867188 142.570312 -54.15625 142.625 -47.96875 C 142.570312 -37.269531 139.894531 -28.210938 134.59375 -20.796875 C 129.300781 -13.390625 121.742188 -7.753906 111.921875 -3.890625 C 102.109375 -0.0234375 90.316406 1.90625 76.546875 1.90625 C 62.410156 1.90625 50.085938 -0.179688 39.578125 -4.359375 C 29.078125 -8.546875 20.925781 -14.992188 15.125 -23.703125 C 9.332031 -32.410156 6.410156 -43.566406 6.359375 -57.171875 L 48.28125 -57.171875 C 48.550781 -52.203125 49.796875 -48.019531 52.015625 -44.625 C 54.234375 -41.238281 57.367188 -38.671875 61.421875 -36.921875 C 65.472656 -35.179688 70.304688 -34.3125 75.921875 -34.3125 C 80.628906 -34.3125 84.570312 -34.890625 87.75 -36.046875 C 90.925781 -37.210938 93.332031 -38.828125 94.96875 -40.890625 C 96.613281 -42.960938 97.460938 -45.320312 97.515625 -47.96875 C 97.460938 -50.457031 96.65625 -52.640625 95.09375 -54.515625 C 93.53125 -56.390625 90.972656 -58.082031 87.421875 -59.59375 C 83.878906 -61.101562 79.09375 -62.519531 73.0625 -63.84375 L 56.859375 -67.34375 C 42.460938 -70.46875 31.117188 -75.695312 22.828125 -83.03125 C 14.546875 -90.363281 10.429688 -100.378906 10.484375 -113.078125 C 10.429688 -123.398438 13.195312 -132.441406 18.78125 -140.203125 C 24.363281 -147.960938 32.117188 -154.007812 42.046875 -158.34375 C 51.972656 -162.6875 63.367188 -164.859375 76.234375 -164.859375 C 89.367188 -164.859375 100.722656 -162.660156 110.296875 -158.265625 C 119.878906 -153.867188 127.28125 -147.6875 132.5 -139.71875 C 137.71875 -131.757812 140.351562 -122.457031 140.40625 -111.8125 Z M 98.15625 -111.8125 "/></g></g></g><g fill="#023e8a" fill-opacity="1"><g transform="translate(2308.065005, 518.680523)"><g><path d="M 51.78125 0 L 3.8125 -162.640625 L 53.046875 -162.640625 L 75.28125 -62.578125 L 76.546875 -62.578125 L 102.921875 -162.640625 L 141.671875 -162.640625 L 168.03125 -62.265625 L 169.3125 -62.265625 L 191.546875 -162.640625 L 240.78125 -162.640625 L 192.8125 0 L 150.5625 0 L 122.9375 -90.84375 L 121.65625 -90.84375 L 94.03125 0 Z M 51.78125 0 "/></g></g></g><g fill="#023e8a" fill-opacity="1"><g transform="translate(2563.830878, 518.680523)"><g><path d="M 52.734375 0 L 5.078125 0 L 58.765625 -162.640625 L 119.125 -162.640625 L 172.796875 0 L 125.15625 0 L 89.578125 -117.84375 L 88.3125 -117.84375 Z M 43.828125 -64.171875 L 133.40625 -64.171875 L 133.40625 -31.125 L 43.828125 -31.125 Z M 43.828125 -64.171875 "/></g></g></g><g fill="#023e8a" fill-opacity="1"><g transform="translate(2752.891782, 518.680523)"><g><path d="M 10.484375 0 L 10.484375 -162.640625 L 80.6875 -162.640625 C 92.75 -162.640625 103.304688 -160.253906 112.359375 -155.484375 C 121.421875 -150.722656 128.460938 -144.023438 133.484375 -135.390625 C 138.515625 -126.765625 141.03125 -116.679688 141.03125 -105.140625 C 141.03125 -93.492188 138.445312 -83.40625 133.28125 -74.875 C 128.125 -66.351562 120.898438 -59.789062 111.609375 -55.1875 C 102.316406 -50.582031 91.476562 -48.28125 79.09375 -48.28125 L 37.171875 -48.28125 L 37.171875 -82.59375 L 70.203125 -82.59375 C 75.390625 -82.59375 79.820312 -83.503906 83.5 -85.328125 C 87.175781 -87.148438 90.007812 -89.753906 92 -93.140625 C 93.988281 -96.535156 94.984375 -100.535156 94.984375 -105.140625 C 94.984375 -109.796875 93.988281 -113.78125 92 -117.09375 C 90.007812 -120.40625 87.175781 -122.945312 83.5 -124.71875 C 79.820312 -126.488281 75.390625 -127.375 70.203125 -127.375 L 54.640625 -127.375 L 54.640625 0 Z M 10.484375 0 "/></g></g></g></svg>