<svg width="200" height="200" viewBox="0 0 200 200" fill="none" xmlns="http://www.w3.org/2000/svg">
  <rect width="200" height="200" rx="20" fill="#E5E7EB"/>
  <path d="M60 160V140H140V160H60Z" fill="#4B5563"/>
  <path d="M70 150V110H130V150H70Z" fill="#9CA3AF"/>
  <path d="M80 80C85.5228 80 90 75.5228 90 70C90 64.4772 85.5228 60 80 60C74.4772 60 70 64.4772 70 70C70 75.5228 74.4772 80 80 80Z" fill="#6B7280"/>
  <path d="M120 80C125.523 80 130 75.5228 130 70C130 64.4772 125.523 60 120 60C114.477 60 110 64.4772 110 70C110 75.5228 114.477 80 120 80Z" fill="#6B7280"/>
  <path d="M60 100H140V110H60V100Z" fill="#4B5563"/>
  <path d="M60 120H140V130H60V120Z" fill="#4B5563"/>
</svg>
